<?xml version="1.0" encoding="UTF-8"?>
<svg id="Layer_1" data-name="Layer 1" xmlns="http://www.w3.org/2000/svg" viewBox="0 0 274.02 76.84">
  <defs>
    <style>
      .cls-1 {
        fill: #b5b2af;
      }

      .cls-2 {
        fill: #7da089;
      }
    </style>
  </defs>
  <g>
    <path class="cls-1" d="M40.57,17.73v51.24h-8.14c-1.56,0-2.82-1.26-2.82-2.82v-1.37c-4.78,5.03-11.79,6.22-18.16,3.5-14.39-6.15-15.46-29.33-1.82-36.86,6.73-3.72,14.52-3.15,19.99,2.42v-16.11h10.96ZM18.9,39.09c-11.66,1.7-10.79,23.61,4.03,21.11,10.3-1.74,10.16-23.18-4.03-21.11Z"/>
    <path class="cls-1" d="M147.82,29.11c29.02-2.98,31.61,38.06,5.34,40.47-28.61,2.63-31.03-37.83-5.34-40.47ZM157.77,41.05c-5.45-5.16-14.79-2.4-16.81,4.71-2.37,8.32,4.06,16.34,12.76,14.05,7.77-2.05,9.6-13.51,4.06-18.76Z"/>
    <path class="cls-1" d="M126.62,68.98h-10.96v-20.13c0-2.41-.08-4.37-.91-6.19-2.26-4.96-10.87-4.25-13.73-.08-.77,1.11-1.65,2.8-1.79,5.94v20.47h-10.64V29.66h10.64v5.16c6.01-8.32,19.88-7.64,24.95,1.32,1.74,3.52,2.44,7.38,2.44,12.84v20Z"/>
    <path class="cls-1" d="M61.45,29.1c28.94-3.27,31.55,37.88,5.67,40.48-28.28,2.84-30.76-37.64-5.67-40.48ZM64.04,38.44c-13.4.86-12.31,23.02,1.51,21.83,12.94-1.12,11.91-22.69-1.51-21.83Z"/>
    <path class="cls-1" d="M185.6,37.07c.7-1.03,1.47-2.1,2.26-3.06,3.59-4.31,9.79-5.99,15.15-4.51l-1.62,10.47c-4.13-.79-8.6-.29-11.93,2.41-2.88,2.34-3.6,5.09-3.86,8.71-.39,5.53-.16,17.88-.16,17.88h-10.47V29.66h7.67c1.64,0,2.97,1.33,2.97,2.97v4.45Z"/>
  </g>
  <path class="cls-2" d="M274.02,1.16c0-2.02-2.64-.88-3.77-.46-11.51,4.3-24.9,8.78-37.8,13.55-.5.19-.8.5-.95,1l-.02,13.81h0v13.85s0,.07,0,.11v2.34c0,5.58,4.53,10.11,10.11,10.11h.06c5.58,0,10.11-4.53,10.11-10.11v-20.25,1c.02-1.15.06-2.28.14-3.39.42-5.32,5.92-6.96,10.45-9.01.73-.33,1.65-.71,2.39-1.09.38-.15.66-.06.66.37l.07,32.12c-.84,15.25-15.18,26.38-30.24,22.27-10.67-2.91-17.45-13.01-17.22-23.5v-22.29c-5.54,6.25-8.58,14.27-8.63,22.41-.03,5.51,1.31,11.08,4.16,16.18,9.88,17.67,33.21,22.26,48.8,8.97,7.14-6.09,11.28-15.16,11.7-24.54V1.16Z"/>
</svg>
